<mxfile host="app.diagrams.net" modified="2023-09-04T06:13:39.179Z" agent="Mozilla/5.0 (X11; Linux x86_64) AppleWebKit/537.36 (KHTML, like Gecko) Chrome/116.0.0.0 Safari/537.36" etag="9Xc4Uh5AT7ScK1QOMEQo" version="21.7.2" type="github">
  <diagram name="Page-1" id="K8C9ZkNLGvzXaGl80SSo">
    <mxGraphModel dx="4097" dy="2203" grid="1" gridSize="10" guides="1" tooltips="1" connect="1" arrows="1" fold="1" page="1" pageScale="1" pageWidth="850" pageHeight="1100" math="0" shadow="0">
      <root>
        <mxCell id="0" />
        <mxCell id="1" parent="0" />
        <mxCell id="-rZIMysFfIpm72EAk75t-1" value="" style="rounded=1;whiteSpace=wrap;html=1;movable=0;resizable=0;rotatable=0;deletable=0;editable=0;locked=1;connectable=0;" vertex="1" parent="1">
          <mxGeometry x="40" y="100" width="420" height="380" as="geometry" />
        </mxCell>
        <mxCell id="-rZIMysFfIpm72EAk75t-2" value="" style="whiteSpace=wrap;html=1;aspect=fixed;" vertex="1" parent="1">
          <mxGeometry x="78.75" y="200" width="100" height="100" as="geometry" />
        </mxCell>
        <mxCell id="-rZIMysFfIpm72EAk75t-15" style="edgeStyle=orthogonalEdgeStyle;rounded=0;orthogonalLoop=1;jettySize=auto;html=1;entryX=0;entryY=0.5;entryDx=0;entryDy=0;entryPerimeter=0;" edge="1" parent="1" source="-rZIMysFfIpm72EAk75t-3" target="-rZIMysFfIpm72EAk75t-9">
          <mxGeometry relative="1" as="geometry" />
        </mxCell>
        <mxCell id="-rZIMysFfIpm72EAk75t-3" value="" style="whiteSpace=wrap;html=1;aspect=fixed;" vertex="1" parent="1">
          <mxGeometry x="323.75" y="200" width="100" height="100" as="geometry" />
        </mxCell>
        <mxCell id="-rZIMysFfIpm72EAk75t-4" value="" style="whiteSpace=wrap;html=1;aspect=fixed;" vertex="1" parent="1">
          <mxGeometry x="198.75" y="200" width="100" height="100" as="geometry" />
        </mxCell>
        <mxCell id="-rZIMysFfIpm72EAk75t-5" value="" style="whiteSpace=wrap;html=1;aspect=fixed;" vertex="1" parent="1">
          <mxGeometry x="76.25" y="330" width="100" height="100" as="geometry" />
        </mxCell>
        <mxCell id="-rZIMysFfIpm72EAk75t-6" value="" style="whiteSpace=wrap;html=1;aspect=fixed;" vertex="1" parent="1">
          <mxGeometry x="196.25" y="330" width="100" height="100" as="geometry" />
        </mxCell>
        <mxCell id="-rZIMysFfIpm72EAk75t-12" style="edgeStyle=orthogonalEdgeStyle;rounded=0;orthogonalLoop=1;jettySize=auto;html=1;entryX=0.5;entryY=1;entryDx=0;entryDy=0;entryPerimeter=0;" edge="1" parent="1" source="-rZIMysFfIpm72EAk75t-7" target="-rZIMysFfIpm72EAk75t-9">
          <mxGeometry relative="1" as="geometry" />
        </mxCell>
        <mxCell id="-rZIMysFfIpm72EAk75t-7" value="" style="whiteSpace=wrap;html=1;aspect=fixed;" vertex="1" parent="1">
          <mxGeometry x="321.25" y="330" width="100" height="100" as="geometry" />
        </mxCell>
        <mxCell id="-rZIMysFfIpm72EAk75t-8" value="&lt;font style=&quot;font-size: 24px;&quot;&gt;Products&lt;/font&gt;" style="text;html=1;strokeColor=none;fillColor=none;align=center;verticalAlign=middle;whiteSpace=wrap;rounded=0;" vertex="1" parent="1">
          <mxGeometry x="220" y="120" width="60" height="30" as="geometry" />
        </mxCell>
        <mxCell id="-rZIMysFfIpm72EAk75t-16" style="edgeStyle=orthogonalEdgeStyle;rounded=0;orthogonalLoop=1;jettySize=auto;html=1;" edge="1" parent="1" source="-rZIMysFfIpm72EAk75t-9">
          <mxGeometry relative="1" as="geometry">
            <mxPoint x="1120" y="240" as="targetPoint" />
          </mxGeometry>
        </mxCell>
        <mxCell id="-rZIMysFfIpm72EAk75t-9" value="" style="shape=cylinder3;whiteSpace=wrap;html=1;boundedLbl=1;backgroundOutline=1;size=15;" vertex="1" parent="1">
          <mxGeometry x="650" y="160" width="60" height="80" as="geometry" />
        </mxCell>
        <mxCell id="-rZIMysFfIpm72EAk75t-13" value="&lt;font style=&quot;font-size: 24px;&quot;&gt;QTY&lt;/font&gt;" style="rounded=1;whiteSpace=wrap;html=1;" vertex="1" parent="1">
          <mxGeometry x="520" y="270" width="110" height="60" as="geometry" />
        </mxCell>
        <mxCell id="-rZIMysFfIpm72EAk75t-18" style="edgeStyle=orthogonalEdgeStyle;rounded=0;orthogonalLoop=1;jettySize=auto;html=1;" edge="1" parent="1" source="-rZIMysFfIpm72EAk75t-17">
          <mxGeometry relative="1" as="geometry">
            <mxPoint x="1360" y="310" as="targetPoint" />
          </mxGeometry>
        </mxCell>
        <mxCell id="-rZIMysFfIpm72EAk75t-17" value="&lt;font style=&quot;font-size: 24px;&quot;&gt;CHeckout&lt;/font&gt;" style="ellipse;whiteSpace=wrap;html=1;" vertex="1" parent="1">
          <mxGeometry x="1110" y="200" width="120" height="80" as="geometry" />
        </mxCell>
        <mxCell id="-rZIMysFfIpm72EAk75t-20" style="edgeStyle=orthogonalEdgeStyle;rounded=0;orthogonalLoop=1;jettySize=auto;html=1;" edge="1" parent="1" source="-rZIMysFfIpm72EAk75t-19">
          <mxGeometry relative="1" as="geometry">
            <mxPoint x="700" y="250" as="targetPoint" />
          </mxGeometry>
        </mxCell>
        <mxCell id="-rZIMysFfIpm72EAk75t-19" value="&lt;font style=&quot;font-size: 24px;&quot;&gt;empty cart after succesfull purchase&lt;/font&gt;" style="rounded=1;whiteSpace=wrap;html=1;" vertex="1" parent="1">
          <mxGeometry x="1310" y="310" width="200" height="170" as="geometry" />
        </mxCell>
      </root>
    </mxGraphModel>
  </diagram>
</mxfile>
